Coordinates
version=1
nRows=11
nColumns=40
inDegrees=yes

Units are S.I. units (second, meters, Newtons, ...)
Angles are in degrees.

endheader
time	pelvis_tilt	pelvis_list	pelvis_rotation	pelvis_tx	pelvis_ty	pelvis_tz	hip_flexion_r	hip_adduction_r	hip_rotation_r	knee_angle_r	knee_angle_r_beta	ankle_angle_r	subtalar_angle_r	mtp_angle_r	hip_flexion_l	hip_adduction_l	hip_rotation_l	knee_angle_l	knee_angle_l_beta	ankle_angle_l	subtalar_angle_l	mtp_angle_l	lumbar_extension	lumbar_bending	lumbar_rotation	arm_flex_r	arm_add_r	arm_rot_r	elbow_flex_r	pro_sup_r	wrist_flex_r	wrist_dev_r	arm_flex_l	arm_add_l	arm_rot_l	elbow_flex_l	pro_sup_l	wrist_flex_l	wrist_dev_l
      1.17000000	     -1.77559704	     -4.75786559	      1.14817128	      0.74975110	      0.92846826	      0.49518676	     13.97364203	      2.74475664	    -13.73979918	     20.07364124	     20.07364124	      9.41929770	     -4.88682223	     -5.94267760	     25.17723065	    -11.05101897	      1.50025871	     67.06921373	     67.06921373	      7.72501968	    -18.21535396	     11.19363060	     -9.48477169	      7.39705534	      1.50621968	     12.43760952	    -17.41315795	     -2.55651206	     48.87365580	     45.64878710	      0.00000000	      0.00000000	      1.44494509	    -10.12230627	     -6.93321458	     48.36156927	     45.59154143	      0.00000000	      0.00000000
      1.18357143	     -1.88973031	     -4.62012616	      1.66283567	      0.74841752	      0.92921372	      0.49571779	     13.37341619	      2.72349088	    -13.82195696	     19.50523013	     19.50523013	      9.48741201	     -5.30722775	     -6.17651995	     26.71127609	    -10.71675936	      1.92300794	     65.28586494	     65.28586494	      8.20799167	    -18.31043778	     11.51980227	     -9.51129418	      7.15644252	      1.44585986	     13.56098224	    -17.72888793	     -2.31817066	     50.96001115	     45.56425269	      0.00000000	      0.00000000	      1.00104588	     -9.70990493	     -6.70913909	     45.38681161	     45.59689548	      0.00000000	      0.00000000
      1.19714286	     -1.95070037	     -4.53173277	      2.19507183	      0.74715476	      0.92994967	      0.49616820	     12.68305247	      2.73386306	    -14.07489039	     18.89775997	     18.89775997	      9.68292732	     -5.40607087	     -6.17114360	     27.99825963	    -10.40516478	      2.30366618	     63.15531881	     63.15531881	      8.55348518	    -18.39677573	     11.65816316	     -9.61415589	      6.97692001	      1.14472486	     14.94891681	    -17.85066618	     -2.40825411	     53.01933792	     45.50060778	      0.00000000	      0.00000000	      0.05211036	     -9.42685615	     -6.46788761	     43.52323588	     45.57461960	      0.00000000	      0.00000000
      1.21071429	     -2.04912693	     -4.39495387	      2.69332224	      0.74590375	      0.93062177	      0.49653541	     12.04663544	      2.69359429	    -14.28574131	     18.30327330	     18.30327330	      9.80980028	     -5.52792563	     -6.31033715	     29.09969721	     -9.99507241	      2.59967197	     60.63891810	     60.63891810	      8.87542673	    -18.47116618	     12.00649536	     -9.70540662	      6.77211285	      1.55926352	     15.34856925	    -18.61089596	     -2.32343987	     56.35451801	     45.38291990	      0.00000000	      0.00000000	      0.17089147	     -8.89887639	     -6.15690346	     40.01307481	     45.58312402	      0.00000000	      0.00000000
      1.22428571	     -2.15333196	     -4.27168961	      3.17205675	      0.74470960	      0.93116085	      0.49679922	     11.44034029	      2.65849592	    -14.51953508	     17.75142761	     17.75142761	      9.98823536	     -5.59511530	     -6.35123733	     30.01151527	     -9.57869934	      2.80438448	     57.76590225	     57.76590225	      9.16328515	    -18.48690726	     12.30122729	     -9.78086486	      6.58232836	      1.67115684	     16.19280421	    -18.96305986	     -2.72245531	     58.99480704	     45.31764024	      0.00000000	      0.00000000	     -0.17580731	     -8.54614432	     -5.78081675	     37.43096379	     45.57570826	      0.00000000	      0.00000000
      1.23785714	     -2.24688159	     -4.16232554	      3.64203045	      0.74355310	      0.93162769	      0.49696270	     10.83882994	      2.63912925	    -14.74373727	     17.22209566	     17.22209566	     10.19625750	     -5.65888148	     -6.28546299	     30.70973877	     -9.13599554	      2.95041993	     54.52037737	     54.52037737	      9.43492463	    -18.44281656	     12.55126942	     -9.85137247	      6.39871740	      1.33695835	     17.63928945	    -18.90437107	     -2.96623564	     60.65325141	     45.27866427	      0.00000000	      0.00000000	     -1.15173553	     -8.34854880	     -5.56730279	     36.10052446	     45.54358057	      0.00000000	      0.00000000
      1.25142857	     -2.43809039	     -3.99015944	      4.03300848	      0.74242453	      0.93189363	      0.49697816	     10.39171695	      2.52310854	    -14.93506645	     16.78399228	     16.78399228	     10.38513913	     -5.70524000	     -6.24930387	     31.28378060	     -8.62242540	      2.92278718	     50.89674401	     50.89674401	      9.68552300	    -18.26796820	     12.76098596	     -9.81999919	      6.15317638	      1.21184402	     18.91620135	    -19.00671670	     -3.13533587	     62.15684573	     45.24089466	      0.00000000	      0.00000000	     -1.99743074	     -8.11584744	     -5.38922218	     34.91099009	     45.51310758	      0.00000000	      0.00000000
      1.26500000	     -2.56438897	     -3.94207766	      4.45433188	      0.74145414	      0.93199080	      0.49685645	      9.88073763	      2.50597660	    -15.33318912	     16.37805721	     16.37805721	     10.63064902	     -5.44241238	     -6.43974314	     31.59946593	     -8.17984031	      2.96368698	     46.90615051	     46.90615051	      9.33771774	    -18.06610813	     11.22912192	     -9.84181646	      6.12929537	      1.81685407	     18.90492096	    -19.79190126	     -3.40621179	     66.35478845	     45.12305026	      0.00000000	      0.00000000	     -1.42565549	     -7.67465786	     -4.77720675	     31.00326148	     45.47870971	      0.00000000	      0.00000000
      1.27857143	     -2.76181783	     -3.88119144	      4.84207541	      0.74053828	      0.93191564	      0.49663115	      9.46415089	      2.48877235	    -15.57447742	     15.99263695	     15.99263695	     10.85598206	     -5.42474207	     -6.42820208	     31.84663974	     -7.66394918	      2.99378727	     42.73741685	     42.73741685	      9.39907239	    -17.54389934	     10.79087265	     -9.76047122	      6.04879475	      1.54531022	     20.14187000	    -19.54699995	     -3.89869973	     68.30123576	     45.08836348	      0.00000000	      0.00000000	     -2.29186769	     -7.50664377	     -4.50550371	     29.89604749	     45.44041327	      0.00000000	      0.00000000
      1.29214286	     -2.88022475	     -3.78623141	      5.19929142	      0.73975071	      0.93183980	      0.49629273	      9.01016531	      2.41781575	    -15.80652134	     15.73374226	     15.73374226	     11.13860236	     -5.39017556	     -6.46350372	     31.82102276	     -7.12182036	      2.93839361	     38.37531763	     38.37531763	      9.51488210	    -16.58387990	     10.35919860	     -9.76236325	      5.93869239	      1.38591045	     21.29669595	    -19.39523432	     -4.13192911	     70.16533555	     45.04460541	      0.00000000	      0.00000000	     -3.06959556	     -7.33607404	     -4.26434547	     28.94621176	     45.40221375	      0.00000000	      0.00000000
      1.30571429	     -3.07624471	     -3.79895467	      5.50096407	      0.73918496	      0.93140231	      0.49590835	      8.64394584	      2.43146082	    -16.13856781	     15.50537156	     15.50537156	     11.50720680	     -5.04268669	     -6.52159886	     31.67448147	     -6.75176195	      2.68216355	     33.74327366	     33.74327366	      8.55253886	    -15.42402893	      7.12924032	     -9.65728663	      5.96896646	      1.91091081	     21.43259887	    -19.85664091	     -4.72181012	     73.63729598	     44.97707150	      0.00000000	      0.00000000	     -3.22500801	     -7.15467579	     -3.44678420	     27.34789350	     45.31450255	      0.00000000	      0.00000000
